<svg width="25" height="24" viewBox="0 0 25 24" fill="none" xmlns="http://www.w3.org/2000/svg">
<path d="M12.5 1V8C12.5 9.657 11.153 11 9.503 11H6.497C5.70203 10.9987 4.94005 10.6821 4.3782 10.1197C3.81636 9.55727 3.50053 8.79497 3.5 8V1M6.5 7V1M9.5 7V1M6.5 11V21.504C6.5 22.33 7.166 23 8 23C8.828 23 9.5 22.32 9.5 21.504V11M15.5 18V21.5C15.5003 21.697 15.5395 21.892 15.6151 22.0738C15.6908 22.2557 15.8016 22.4209 15.9411 22.5599C16.0806 22.699 16.2462 22.8092 16.4283 22.8843C16.6104 22.9594 16.8055 22.9978 17.0025 22.9975C17.1995 22.9972 17.3945 22.958 17.5763 22.8824C17.7582 22.8067 17.9234 22.6959 18.0624 22.5564C18.2015 22.4169 18.3117 22.2513 18.3868 22.0692C18.4619 21.8871 18.5003 21.692 18.5 21.495V15C18.5 15 21.5 15 21.5 12V7C21.5 4 19.5 2 15.5 2V18Z" stroke="#AC9FBB" stroke-width="2"/>
</svg>
