<svg width="24" height="24" viewBox="0 0 24 24" fill="none" xmlns="http://www.w3.org/2000/svg">
<path d="M4 21V19H20V21H4ZM8 17C6.9 17 5.95833 16.6083 5.175 15.825C4.39167 15.0417 4 14.1 4 13V3H20C20.55 3 21.021 3.196 21.413 3.588C21.805 3.98 22.0007 4.45067 22 5V8C22 8.55 21.804 9.021 21.412 9.413C21.02 9.805 20.5493 10.0007 20 10H18V13C18 14.1 17.6083 15.0417 16.825 15.825C16.0417 16.6083 15.1 17 14 17H8ZM8 15H14C14.55 15 15.021 14.804 15.413 14.412C15.805 14.02 16.0007 13.5493 16 13V5H6V13C6 13.55 6.196 14.021 6.588 14.413C6.98 14.805 7.45067 15.0007 8 15ZM18 8H20V5H18V8Z" fill="#ACB6BE"/>
</svg>
