<svg width="25" height="25" viewBox="0 0 25 25" fill="none" xmlns="http://www.w3.org/2000/svg">
<path d="M4.5 2.5L6.5 22.5H17.5L19.5 2.5H4.5ZM6.7 4.5H17.3L17 7.73C13.68 9 12.35 8.17 11.88 7.81C11.63 7.62 11.27 7.19 10.61 6.89C9.95 6.58 9.05 6.5 8 6.82C7.59 6.93 7.27 7.11 7 7.29L6.7 4.5ZM9.36 8.61C9.55 8.61 9.66 8.65 9.77 8.7C10 8.8 10.21 9.05 10.67 9.4C11.53 10.06 13.53 10.86 16.76 9.91L15.7 20.5H8.3L7.21 9.56C7.26 9.5 7.41 9.39 7.67 9.21C8 9 8.41 8.78 8.5 8.75H8.53C8.91 8.64 9.17 8.6 9.36 8.61Z" fill="#ACB6BE"/>
</svg>
