<svg width="24" height="24" viewBox="0 0 24 24" fill="none" xmlns="http://www.w3.org/2000/svg">
<path d="M20.6119 14.1235L17.1896 15.4425L14.1086 14.1362C13.8618 14.0316 13.5864 14.0316 13.3396 14.1362L10.2759 15.4352L7.21215 14.1362C6.97603 14.036 6.71333 14.0314 6.47423 14.1235L2.6812 15.585C2.5535 15.6342 2.4362 15.7095 2.33598 15.8068C2.23577 15.904 2.1546 16.0212 2.09713 16.1516C1.98105 16.4151 1.9685 16.7166 2.06224 16.9899C2.15598 17.2632 2.34833 17.4858 2.59697 17.6088C2.84561 17.7318 3.13019 17.7451 3.38808 17.6458L4.08807 17.3763C4.18182 18.3684 4.61975 19.2883 5.31701 19.9577C6.01426 20.6272 6.92122 20.9986 7.86214 21H16.1379C17.1435 20.9988 18.1076 20.5749 18.8187 19.8215C19.5298 19.068 19.9298 18.0464 19.9309 16.9808V16.7186L21.3188 16.1842C21.4465 16.135 21.5638 16.0597 21.664 15.9625C21.7642 15.8653 21.8454 15.7481 21.9029 15.6176C21.9603 15.4872 21.993 15.346 21.999 15.2021C22.005 15.0583 21.9842 14.9146 21.9378 14.7793C21.8913 14.644 21.8202 14.5197 21.7285 14.4135C21.6367 14.3073 21.5261 14.2213 21.403 14.1604C21.2799 14.0995 21.1467 14.0649 21.0109 14.0586C20.8752 14.0522 20.7396 14.0743 20.6119 14.1235ZM16.1379 18.8077H7.86214C7.40488 18.8077 6.96635 18.6152 6.64301 18.2726C6.31968 17.93 6.13803 17.4653 6.13803 16.9808V16.5862L6.81044 16.3267L9.89142 17.633C10.1382 17.7377 10.4136 17.7377 10.6604 17.633L13.7241 16.334L16.7878 17.633C17.024 17.7332 17.2867 17.7378 17.5258 17.6458L17.7749 17.5489C17.6619 17.9147 17.4428 18.2334 17.1489 18.4594C16.8549 18.6855 16.5011 18.8073 16.1379 18.8077ZM2.00017 11.8654C2.00017 11.5747 2.10916 11.2959 2.30316 11.0903C2.49716 10.8847 2.76028 10.7692 3.03464 10.7692H20.9654C21.2397 10.7692 21.5028 10.8847 21.6968 11.0903C21.8908 11.2959 21.9998 11.5747 21.9998 11.8654C21.9998 12.1561 21.8908 12.4349 21.6968 12.6405C21.5028 12.8461 21.2397 12.9615 20.9654 12.9615H3.03464C2.76028 12.9615 2.49716 12.8461 2.30316 12.6405C2.10916 12.4349 2.00017 12.1561 2.00017 11.8654ZM5.12081 9.67308H18.8792C19.1541 9.67284 19.4251 9.60419 19.6703 9.47266C19.9156 9.34113 20.1283 9.15039 20.2912 8.91582C20.4504 8.68725 20.556 8.42181 20.5991 8.14146C20.6423 7.8611 20.6219 7.57388 20.5395 7.30356C19.5964 4.18135 16.0853 2 12 2C7.91473 2 4.40444 4.18043 3.46049 7.30264C3.37793 7.57294 3.35738 7.8602 3.40056 8.1406C3.44374 8.421 3.5494 8.68644 3.70877 8.9149C3.87144 9.14986 4.08404 9.34093 4.32935 9.47265C4.57467 9.60436 4.8458 9.67303 5.12081 9.67308ZM12 4.19231C14.9051 4.19231 17.4835 5.5488 18.3792 7.48077H5.6208C6.51734 5.5488 9.09574 4.19231 12 4.19231Z" fill="#ACB6BE"/>
</svg>
