<svg width="24" height="24" viewBox="0 0 24 24" fill="none" xmlns="http://www.w3.org/2000/svg">
<path d="M12 1V8C12 9.657 10.653 11 9.003 11H5.997C5.20203 10.9987 4.44005 10.6821 3.8782 10.1197C3.31636 9.55727 3.00053 8.79497 3 8V1M6 7V1M9 7V1M6 11V21.504C6 22.33 6.666 23 7.5 23C8.328 23 9 22.32 9 21.504V11M15 18V21.5C15.0003 21.697 15.0395 21.892 15.1151 22.0738C15.1908 22.2557 15.3016 22.4209 15.4411 22.5599C15.5806 22.699 15.7462 22.8092 15.9283 22.8843C16.1104 22.9594 16.3055 22.9978 16.5025 22.9975C16.6995 22.9972 16.8945 22.958 17.0763 22.8824C17.2582 22.8067 17.4234 22.6959 17.5624 22.5564C17.7015 22.4169 17.8117 22.2513 17.8868 22.0692C17.9619 21.8871 18.0003 21.692 18 21.495V15C18 15 21 15 21 12V7C21 4 19 2 15 2V18Z" stroke="#ACB6BE" stroke-width="2"/>
</svg>
