<svg width="24" height="24" viewBox="0 0 24 24" fill="none" xmlns="http://www.w3.org/2000/svg">
<path d="M15.0001 12.9C16.0532 13.1143 17.1473 12.9836 18.1203 12.5273C19.0932 12.071 19.8933 11.3133 20.4019 10.3666C20.9104 9.41985 21.1004 8.33446 20.9437 7.27128C20.787 6.2081 20.2919 5.22371 19.5318 4.46399C18.7717 3.70428 17.787 3.20969 16.7238 3.05351C15.6605 2.89734 14.5752 3.0879 13.6288 3.59694C12.6823 4.10599 11.925 4.90644 11.4692 5.87965C11.0134 6.85286 10.8832 7.94703 11.0981 9.00001M15.0001 12.9L11.0981 9.00101L3.58509 17.585C3.20981 17.9599 2.99882 18.4685 2.99854 18.999C2.9984 19.2616 3.04999 19.5217 3.15037 19.7644C3.25076 20.0071 3.39796 20.2277 3.58359 20.4135C3.76921 20.5993 3.98962 20.7468 4.23222 20.8474C4.47482 20.9481 4.73488 20.9999 4.99753 21.0001C5.52797 21.0003 6.03681 20.7899 6.41209 20.415L15.0001 12.9Z" stroke="#ACB6BE" stroke-width="2" stroke-linecap="round" stroke-linejoin="round"/>
</svg>
