<svg width="24" height="24" viewBox="0 0 24 24" fill="none" xmlns="http://www.w3.org/2000/svg">
<path d="M12 20.4C11.6833 20.4 11.375 20.325 11.075 20.175C10.775 20.025 10.525 19.8 10.325 19.5L3.12502 8.675C2.80835 8.19167 2.69568 7.66233 2.78702 7.087C2.87835 6.51167 3.14935 6.07467 3.60002 5.776C4.85002 4.92533 6.18335 4.25 7.60002 3.75C9.01668 3.25 10.4833 3 12 3C13.5167 3 14.9833 3.246 16.4 3.738C17.8167 4.23 19.15 4.909 20.4 5.775C20.8333 6.075 21.1 6.51267 21.2 7.088C21.3 7.66333 21.1917 8.19233 20.875 8.675L13.675 19.5C13.475 19.8 13.225 20.025 12.925 20.175C12.625 20.325 12.3167 20.4 12 20.4ZM12 18.4L19.3 7.45C18.2167 6.7 17.0583 6.10433 15.825 5.663C14.5917 5.22167 13.3167 5.00067 12 5C10.6833 5 9.41235 5.221 8.18702 5.663C6.96168 6.105 5.79935 6.70067 4.70002 7.45L12 18.4ZM9.50002 10C9.91668 10 10.271 9.854 10.563 9.562C10.855 9.27 11.0007 8.916 11 8.5C11 8.08333 10.854 7.729 10.562 7.437C10.27 7.145 9.91602 6.99933 9.50002 7C9.08335 7 8.72902 7.146 8.43702 7.438C8.14502 7.73 7.99935 8.084 8.00002 8.5C8.00002 8.91667 8.14602 9.271 8.43802 9.563C8.73002 9.855 9.08402 10.0007 9.50002 10ZM12 15C12.4167 15 12.771 14.854 13.063 14.562C13.355 14.27 13.5007 13.916 13.5 13.5C13.5 13.0833 13.354 12.729 13.062 12.437C12.77 12.145 12.416 11.9993 12 12C11.5833 12 11.229 12.146 10.937 12.438C10.645 12.73 10.4993 13.084 10.5 13.5C10.5 13.9167 10.646 14.271 10.938 14.563C11.23 14.855 11.584 15.0007 12 15Z" fill="#ACB6BE"/>
</svg>
