<svg width="116" height="40" viewBox="0 0 116 40" fill="none" xmlns="http://www.w3.org/2000/svg">
<rect width="40" height="40" rx="2" fill="#4F3A65"/>
<path d="M50.92 11.4C54.04 10.44 56.8533 9.96 59.36 9.96C61.8933 9.96 64.04 10.64 65.8 12C67.56 13.3333 68.44 14.9867 68.44 16.96C68.44 19.92 66.7867 22.2667 63.48 24C66.5733 25.2533 68.12 27.3467 68.12 30.28C68.12 32.44 66.9867 34.3733 64.72 36.08C62.4533 37.76 60.08 38.6 57.6 38.6C57.28 38.6 55 38.4133 50.76 38.04C51.1333 32.3067 51.32 27.48 51.32 23.56C51.32 19.64 51.1867 15.5867 50.92 11.4ZM63.04 17.52C63.04 16.72 62.64 16.0533 61.84 15.52C61.0667 14.96 60.2267 14.68 59.32 14.68C58.44 14.68 57.4933 14.84 56.48 15.16C56.5867 18.36 56.64 20.7733 56.64 22.4C57.8667 22.2933 59.24 21.7467 60.76 20.76C62.28 19.7467 63.04 18.6667 63.04 17.52ZM58.48 33.72C59.36 33.72 60.2933 33.3733 61.28 32.68C62.2667 31.96 62.76 31.1467 62.76 30.24C62.76 29.3067 62.1867 28.4933 61.04 27.8C59.8933 27.1067 58.4133 26.68 56.6 26.52C56.5467 29.6667 56.4933 32.0267 56.44 33.6C56.92 33.68 57.6 33.72 58.48 33.72ZM74.5775 30.8C74.5775 33.8133 75.2442 35.32 76.5775 35.32C77.1642 35.32 77.6575 34.48 78.0575 32.8C78.4575 31.0933 78.6575 29.4667 78.6575 27.92C78.6575 24.5067 78.0975 22.8 76.9775 22.8C76.2575 22.8 75.6708 23.72 75.2175 25.56C74.7908 27.3733 74.5775 29.12 74.5775 30.8ZM69.8975 30.44C69.8975 27.96 70.4042 25.5333 71.4175 23.16C71.9508 21.96 72.6975 20.9867 73.6575 20.24C74.6442 19.4667 75.7375 19.08 76.9375 19.08C78.1375 19.08 79.1642 19.36 80.0175 19.92C80.8975 20.4533 81.5642 21.1733 82.0175 22.08C82.8975 23.8667 83.3375 25.8133 83.3375 27.92C83.3375 30.8267 82.7375 33.4133 81.5375 35.68C80.3642 37.92 78.7108 39.04 76.5775 39.04C72.1242 39.04 69.8975 36.1733 69.8975 30.44ZM89.3041 30.8C89.3041 33.8133 89.9707 35.32 91.3041 35.32C91.8907 35.32 92.3841 34.48 92.7841 32.8C93.1841 31.0933 93.3841 29.4667 93.3841 27.92C93.3841 24.5067 92.8241 22.8 91.7041 22.8C90.9841 22.8 90.3974 23.72 89.9441 25.56C89.5174 27.3733 89.3041 29.12 89.3041 30.8ZM84.6241 30.44C84.6241 27.96 85.1307 25.5333 86.1441 23.16C86.6774 21.96 87.4241 20.9867 88.3841 20.24C89.3707 19.4667 90.4641 19.08 91.6641 19.08C92.8641 19.08 93.8907 19.36 94.7441 19.92C95.6241 20.4533 96.2907 21.1733 96.7441 22.08C97.6241 23.8667 98.0641 25.8133 98.0641 27.92C98.0641 30.8267 97.4641 33.4133 96.2641 35.68C95.0907 37.92 93.4374 39.04 91.3041 39.04C86.8507 39.04 84.6241 36.1733 84.6241 30.44ZM100.911 38.32C100.804 35.5467 100.751 31.44 100.751 26C100.751 20.56 100.951 14.8133 101.351 8.76L106.031 9.12C105.631 15.6533 105.431 21.9467 105.431 28C108.204 24.6133 110.284 21.32 111.671 18.12L114.871 20.92C113.671 23.72 112.071 26.4933 110.071 29.24C112.151 31.6667 113.804 33.9333 115.031 36.04L111.991 38.92C110.551 36.68 108.364 34.0267 105.431 30.96C105.431 33.92 105.484 36.52 105.591 38.76L100.911 38.32Z" fill="#ED696C"/>
</svg>
